<svg xmlns="http://www.w3.org/2000/svg" version="1.1" xmlns:xlink="http://www.w3.org/1999/xlink" xmlns:svgjs="http://svgjs.com/svgjs" id="Pattern1674SvgRootPreview" width="100%" height="100%"><defs><pattern x="0" y="0" width="1" height="1" patternUnits="userSpaceOnUse" id="Pattern1674Layer1"><g id="PatternRootContent1"><g id="Pattern1674Layer1background"><rect width="1" height="1" id="Pattern1674Background1" class="color_1 fill_color_1" fill="#9fff88"></rect></g></g></pattern><pattern x="0" y="0" width="30" height="40" patternUnits="userSpaceOnUse" id="Pattern1674Layer2" patternTransform="matrix(0.8,0,0,0.8,0,0)"><g id="PatternRootContent2"><g id="Pattern1674Layer2Element1"><use xlink:href="#Pattern1674Element1" x="18" y="-22" transform="translate(29, -11) scale(1) translate(-29, 11) rotate(0, 30, -10)"></use><use xlink:href="#Pattern1674Element1" x="-12" y="-22" transform="translate(-1, -11) scale(1) translate(1, 11) rotate(0, 0, -10)"></use><use xlink:href="#Pattern1674Element1" x="3" y="-2" transform="translate(14, 9) scale(1) translate(-14, -9) rotate(0, 15, 10)"></use><use xlink:href="#Pattern1674Element1" x="-27" y="-2" transform="translate(-16, 9) scale(1) translate(16, -9) rotate(0, -15, 10)"></use><use xlink:href="#Pattern1674Element1" x="18" y="18" transform="translate(29, 29) scale(1) translate(-29, -29) rotate(0, 30, 30)"></use><use xlink:href="#Pattern1674Element1" x="-12" y="18" transform="translate(-1, 29) scale(1) translate(1, -29) rotate(0, 0, 30)"></use><use xlink:href="#Pattern1674Element1" x="3" y="38" transform="translate(14, 49) scale(1) translate(-14, -49) rotate(0, 15, 50)"></use><use xlink:href="#Pattern1674Element1" x="3" y="38" transform="translate(14, 49) scale(1) translate(-14, -49) rotate(0, 15, 50)"></use></g></g></pattern><symbol id="Pattern1674Element1"><path d="M7,2A6,6 0 0,0 1,8A6,6 0 0,0 7,14A6,6 0 0,0 13,8A6,6 0 0,0 7,2M21.5,6A1.5,1.5 0 0,0 20,7.5A1.5,1.5 0 0,0 21.5,9A1.5,1.5 0 0,0 23,7.5A1.5,1.5 0 0,0 21.5,6M17,8A3,3 0 0,0 14,11A3,3 0 0,0 17,14A3,3 0 0,0 20,11A3,3 0 0,0 17,8M17,15A3.5,3.5 0 0,0 13.5,18.5A3.5,3.5 0 0,0 17,22A3.5,3.5 0 0,0 20.5,18.5A3.5,3.5 0 0,0 17,15Z" class="color_2 fill_color_2" fill="#23adad"></path></symbol></defs><rect width="100%" height="100%" id="Pattern1674RctLayer1" fill="url(#Pattern1674Layer1)"></rect><rect width="100%" height="100%" id="Pattern1674RctLayer2" fill="url(#Pattern1674Layer2)"></rect></svg>